<svg fill="#9B4DCA" xmlns="http://www.w3.org/2000/svg" xmlns:xlink="http://www.w3.org/1999/xlink" version="1.1" x="0px" y="0px" viewBox="0 0 100 100" enable-background="new 0 0 100 100" xml:space="preserve"><g><g><path d="M46.593,68.527c-0.005,0-0.01,0-0.015,0c-0.398-0.004-0.778-0.166-1.057-0.45L31.205,53.475    c-0.58-0.592-0.57-1.542,0.021-2.121l29.203-28.635c0.311-0.305,7.766-7.448,22.389-7.448l0.438,0.002    c0.398,0.004,0.778,0.166,1.056,0.45c0.279,0.284,0.433,0.667,0.429,1.065c-0.146,14.91-7.577,22.365-7.893,22.675L47.643,68.098    C47.362,68.373,46.985,68.527,46.593,68.527z M34.397,52.445l12.217,12.46L74.747,37.32c0.063-0.063,6.351-6.45,6.95-19.034    c-12.669,0.348-19.103,6.511-19.168,6.575L34.397,52.445z"></path></g><g><path d="M64.989,41.282c-1.792,0-3.469-0.704-4.723-1.983c-2.553-2.604-2.512-6.799,0.092-9.352    c1.245-1.219,2.889-1.891,4.629-1.891c1.792,0,3.468,0.705,4.722,1.984c2.552,2.602,2.512,6.796-0.091,9.35    C68.374,40.61,66.73,41.282,64.989,41.282z M64.987,31.057c-0.951,0-1.85,0.367-2.529,1.033c-1.422,1.394-1.445,3.686-0.05,5.108    c1.351,1.378,3.731,1.402,5.11,0.051c1.421-1.395,1.444-3.686,0.049-5.108C66.882,31.442,65.966,31.057,64.987,31.057z"></path></g><g><path d="M44.661,81.16c-0.232,0-0.467-0.054-0.684-0.165c-0.575-0.294-0.896-0.923-0.799-1.562L45.11,66.8    c0.125-0.82,0.894-1.383,1.709-1.256c0.819,0.125,1.381,0.891,1.256,1.709l-1.251,8.186l12.857-12.606l1.856-12.14    c0.125-0.819,0.893-1.381,1.709-1.256c0.819,0.125,1.381,0.891,1.256,1.709l-1.932,12.635c-0.049,0.321-0.201,0.617-0.433,0.845    L45.712,80.731C45.425,81.013,45.045,81.16,44.661,81.16z"></path></g><g><path d="M19.605,55.607c-0.567,0-1.094-0.322-1.348-0.842c-0.283-0.581-0.163-1.277,0.298-1.729l16.427-16.107    c0.232-0.227,0.531-0.373,0.853-0.416l12.67-1.684c0.824-0.11,1.575,0.468,1.685,1.289s-0.468,1.576-1.289,1.685l-12.175,1.618    L23.869,52.028l8.209-1.09c0.819-0.109,1.575,0.468,1.685,1.289s-0.468,1.576-1.289,1.685l-12.67,1.683    C19.737,55.603,19.67,55.607,19.605,55.607z"></path></g><g><path d="M32.133,68.384c-0.389,0-0.777-0.15-1.071-0.45c-0.58-0.592-0.57-1.542,0.021-2.122l23.729-23.266    c0.592-0.58,1.542-0.57,2.122,0.021c0.58,0.592,0.57,1.542-0.021,2.122L33.183,67.956C32.891,68.242,32.512,68.384,32.133,68.384z    "></path></g><g><path d="M26.516,88.213c-0.362,0-0.715-0.131-0.991-0.374c-0.328-0.288-0.514-0.705-0.509-1.141l0.048-4.855L14.91,86.548    c-0.619,0.286-1.353,0.12-1.787-0.405c-0.435-0.525-0.46-1.277-0.063-1.831l7.934-11.059l-6.546,2.111    c-0.521,0.167-1.092,0.039-1.49-0.337c-0.398-0.375-0.56-0.938-0.422-1.468C16.494,58.365,35.215,55.13,36.01,55    c0.817-0.132,1.588,0.42,1.722,1.237s-0.419,1.588-1.236,1.724c-0.163,0.027-15.159,2.639-20.096,13.623l8.006-2.582    c0.615-0.199,1.291,0.02,1.672,0.544c0.381,0.523,0.384,1.232,0.007,1.758l-7.265,10.125l7.135-3.306    c0.468-0.216,1.013-0.179,1.444,0.101c0.433,0.279,0.691,0.76,0.687,1.275l-0.05,5.019c2.887-1.57,8.873-6.462,13.955-21.223    c0.27-0.784,1.125-1.2,1.907-0.93c0.783,0.27,1.2,1.124,0.93,1.907C37.175,86.503,27.146,88.14,26.723,88.199    C26.654,88.208,26.584,88.213,26.516,88.213z"></path></g></g><g><circle cx="29.81" cy="16.483" r="2.322"></circle></g><g><circle cx="16.048" cy="39.02" r="2.322"></circle></g><g><circle cx="78.844" cy="70.161" r="2.322"></circle></g></svg>